<svg width="20" height="20" viewBox="0 0 20 20" fill="none" xmlns="http://www.w3.org/2000/svg">
<path d="M4.16666 4.16667C4.16657 3.87342 4.24386 3.58533 4.39073 3.3315C4.53759 3.07767 4.74883 2.86708 5.00312 2.721C5.2574 2.57492 5.54573 2.49853 5.83898 2.49952C6.13224 2.50052 6.42004 2.57887 6.67332 2.72667L16.6708 8.55834C16.9231 8.70474 17.1326 8.91479 17.2783 9.16751C17.424 9.42023 17.5008 9.70675 17.501 9.99845C17.5013 10.2902 17.425 10.5768 17.2797 10.8298C17.1345 11.0828 16.9254 11.2932 16.6733 11.44L6.67332 17.2733C6.42004 17.4211 6.13224 17.4995 5.83898 17.5005C5.54573 17.5015 5.2574 17.4251 5.00312 17.279C4.74883 17.1329 4.53759 16.9223 4.39073 16.6685C4.24386 16.4147 4.16657 16.1266 4.16666 15.8333V4.16667Z" stroke="white" stroke-width="2" stroke-linecap="round" stroke-linejoin="round"/>
</svg>
