<svg width="20" height="20" viewBox="0 0 20 20" fill="none" xmlns="http://www.w3.org/2000/svg">
<path d="M10 5.44002V2.50002C10 2.27901 10.0878 2.06704 10.2441 1.91076C10.4004 1.75448 10.6123 1.66669 10.8333 1.66669" stroke="white" stroke-width="2" stroke-linecap="round" stroke-linejoin="round"/>
<path d="M15.1975 17.5C17.2302 15.2013 18.3463 12.2352 18.3333 9.16664C18.3333 8.20144 18.0539 7.25687 17.5289 6.44696C17.0039 5.63704 16.2556 4.99641 15.3745 4.60237C14.4934 4.20834 13.5171 4.07776 12.5634 4.22639C11.6097 4.37502 10.7194 4.7965 10 5.43997C9.28058 4.7965 8.39029 4.37502 7.4366 4.22639C6.48291 4.07776 5.50659 4.20834 4.62548 4.60237C3.74437 4.99641 2.99614 5.63704 2.47111 6.44696C1.94608 7.25687 1.66669 8.20144 1.66667 9.16664C1.66141 12.2338 2.77655 15.1972 4.8025 17.5C5.17559 17.9174 5.67798 18.1974 6.22918 18.2954C6.78038 18.3933 7.34849 18.3033 7.8425 18.04C8.50647 17.6857 9.24744 17.5004 10 17.5004C10.7526 17.5004 11.4935 17.6857 12.1575 18.04C12.6515 18.3033 13.2196 18.3933 13.7708 18.2954C14.322 18.1974 14.8244 17.9174 15.1975 17.5Z" stroke="white" stroke-width="2" stroke-linecap="round" stroke-linejoin="round"/>
</svg>
