<svg width="48" height="48" viewBox="0 0 48 48" fill="none" xmlns="http://www.w3.org/2000/svg">
<path d="M28.212 11.106C28.7672 11.3835 29.3793 11.5279 30 11.5279C30.6207 11.5279 31.2328 11.3835 31.788 11.106L39.106 7.44603C39.4112 7.29355 39.7502 7.22165 40.091 7.23717C40.4318 7.25269 40.7629 7.35511 41.0529 7.53469C41.3429 7.71428 41.5822 7.96506 41.748 8.2632C41.9138 8.56133 42.0005 8.89691 42 9.23803V34.766C41.9998 35.1374 41.8962 35.5013 41.7009 35.8171C41.5056 36.1329 41.2262 36.3881 40.894 36.554L31.788 41.108C31.2328 41.3855 30.6207 41.5299 30 41.5299C29.3793 41.5299 28.7672 41.3855 28.212 41.108L19.788 36.896C19.2328 36.6186 18.6207 36.4742 18 36.4742C17.3793 36.4742 16.7672 36.6186 16.212 36.896L8.89401 40.556C8.58871 40.7086 8.24945 40.7805 7.90852 40.7649C7.56758 40.7493 7.23632 40.6467 6.94624 40.4668C6.65616 40.287 6.41693 40.036 6.2513 39.7376C6.08567 39.4391 5.99916 39.1033 6.00001 38.762V13.236C6.0002 12.8647 6.10377 12.5008 6.29911 12.185C6.49445 11.8692 6.77384 11.614 7.10601 11.448L16.212 6.89403C16.7672 6.6166 17.3793 6.47217 18 6.47217C18.6207 6.47217 19.2328 6.6166 19.788 6.89403L28.212 11.106Z" stroke="#7A756E" stroke-width="2" stroke-linecap="round" stroke-linejoin="round"/>
<path d="M30 11.528V41.528" stroke="#7A756E" stroke-width="2" stroke-linecap="round" stroke-linejoin="round"/>
<path d="M18 6.47205V36.472" stroke="#7A756E" stroke-width="2" stroke-linecap="round" stroke-linejoin="round"/>
</svg>
